{"glyphs":{":":{"x_min":0,"x_max":260,"ha":260,"o":"m 130 411 q 161 411 182 389 q 204 368 204 337 q 204 306 182 285 q 161 263 130 263 q 99 263 78 285 q 56 306 56 337 q 56 368 78 389 q 99 411 130 411 z m 130 133 q 161 133 182 111 q 204 90 204 59 q 204 28 182 7 q 161 -15 130 -15 q 99 -15 78 7 q 56 28 56 59 q 56 90 78 111 q 99 133 130 133 z"},"$":{"x_min":0,"x_max":458,"ha":458,"o":"m 208 615 l 234 615 l 234 573 q 322 570 380 517 l 367 403 l 350 403 q 346 470 316 506 q 286 542 234 543 l 234 349 q 343 277 379 232 q 414 187 414 133 q 414 68 364 26 q 313 -15 234 -15 l 234 -118 l 208 -118 l 208 -15 q 104 -12 44 50 l 65 165 l 82 165 q 98 24 208 15 l 208 227 q 114 293 81 334 q 48 375 48 424 q 48 484 94 527 q 141 570 208 573 z m 208 368 l 208 543 q 172 540 148 520 q 124 499 124 471 q 124 424 208 368 z m 234 209 l 234 15 q 277 17 305 39 q 332 62 332 96 q 332 123 311 149 q 289 174 234 209 z"},"?":{"x_min":0,"x_max":365,"ha":365,"o":"m 46 494 l 32 507 q 46 560 85 593 q 125 626 174 626 q 238 626 285 575 q 333 525 333 457 q 333 421 321 386 q 310 351 288 324 q 267 297 220 269 q 182 246 170 228 q 159 209 158 183 l 141 183 q 132 206 132 227 q 132 244 139 259 q 147 275 172 304 q 206 342 217 368 q 228 395 228 425 q 228 471 198 504 q 167 537 124 537 q 78 537 46 494 z m 157 133 q 188 133 209 111 q 231 90 231 59 q 231 28 209 7 q 188 -15 157 -15 q 126 -15 105 7 q 83 28 83 59 q 83 90 105 111 q 126 133 157 133 z"},"<":{"x_min":0,"x_max":667,"ha":667,"o":"m 598 72 l 68 295 l 68 353 l 598 576 l 598 507 l 154 324 l 598 141 z"},"'":{"x_min":0,"x_max":278,"ha":278,"o":"m 148 341 l 127 341 l 101 485 q 90 558 90 568 q 90 626 137 626 q 159 626 174 612 q 188 597 188 574 q 188 547 175 485 z"},"=":{"x_min":0,"x_max":667,"ha":667,"o":"m 67 410 l 67 472 l 599 472 l 599 410 z m 67 179 l 67 241 l 599 241 l 599 179 z"},"a":{"x_min":0,"x_max":458,"ha":458,"o":"m 130 -15 q 83 -15 50 14 q 17 43 17 84 q 17 125 50 152 q 83 179 187 207 q 237 220 259 228 q 259 280 236 304 q 214 327 165 327 q 88 327 52 264 l 37 264 q 52 325 96 359 q 141 392 206 392 q 282 392 327 355 q 372 318 372 251 l 372 73 q 372 23 395 23 q 419 23 425 58 l 441 58 q 438 23 414 4 q 390 -15 349 -15 q 314 -15 293 -3 q 272 10 258 38 l 249 30 q 198 -15 130 -15 z m 258 65 l 258 208 q 183 176 159 153 q 135 130 135 94 q 135 63 149 45 q 164 26 187 26 q 219 26 258 65 z"},"L":{"x_min":0,"x_max":510,"ha":510,"o":"m 311 585 l 311 568 q 264 556 250 541 q 237 526 237 490 l 237 96 q 237 60 256 46 q 275 33 329 33 q 385 33 416 58 q 447 83 481 152 l 498 152 l 481 0 l 34 0 l 34 17 q 81 29 94 45 q 108 61 108 112 l 108 486 q 108 525 94 541 q 79 557 34 568 l 34 585 z"},"3":{"x_min":0,"x_max":458,"ha":458,"o":"m 264 447 q 264 493 235 522 q 205 552 168 552 q 130 552 83 506 l 75 514 q 96 554 137 577 q 178 600 228 600 q 292 600 333 562 q 375 523 375 464 q 375 414 337 374 q 300 333 236 316 l 236 314 q 311 309 353 267 q 396 226 396 158 q 396 83 342 34 q 287 -15 204 -15 q 101 -15 41 63 l 49 71 q 110 23 161 23 q 211 23 243 58 q 275 92 275 147 q 275 209 238 250 q 200 290 136 290 q 124 290 111 288 l 111 304 q 264 335 264 447 z"},";":{"x_min":0,"x_max":260,"ha":260,"o":"m 43 -181 l 43 -164 q 138 -130 138 -51 q 138 -38 133 -25 q 127 -13 120 -13 q 119 -13 114 -14 q 107 -15 103 -15 q 79 -15 62 5 q 45 25 45 53 q 45 84 66 104 q 86 124 119 124 q 160 124 189 87 q 218 50 218 -2 q 218 -66 164 -121 q 110 -176 43 -181 z m 130 411 q 161 411 182 389 q 204 368 204 337 q 204 306 182 285 q 161 263 130 263 q 99 263 78 285 q 56 306 56 337 q 56 368 78 389 q 99 411 130 411 z"},"J":{"x_min":0,"x_max":396,"ha":396,"o":"m 356 585 l 356 568 q 310 556 297 541 q 283 526 283 474 l 283 -44 q 283 -130 240 -178 q 196 -226 117 -226 q 56 -226 13 -192 q -29 -159 -36 -104 l -19 -104 q 10 -160 68 -160 q 114 -160 134 -129 q 154 -97 154 -21 l 154 484 q 154 526 139 542 q 125 558 79 568 l 79 585 z"},"V":{"x_min":0,"x_max":615,"ha":615,"o":"m 601 585 l 601 568 q 565 561 543 538 q 521 516 500 460 l 320 -15 l 301 -15 l 116 454 q 91 518 71 540 q 51 562 13 568 l 13 585 l 279 585 l 279 568 q 230 560 230 525 q 230 510 240 484 l 357 187 l 461 468 q 470 494 470 512 q 470 558 407 568 l 407 585 z"},"\"":{"x_min":0,"x_max":555,"ha":555,"o":"m 376 341 l 355 341 l 329 485 q 318 558 318 568 q 318 626 365 626 q 387 626 402 612 q 416 597 416 574 q 416 558 403 485 z m 197 341 l 176 341 l 150 485 q 139 555 139 568 q 139 626 186 626 q 208 626 222 612 q 237 597 237 574 q 237 555 224 485 z"},"7":{"x_min":0,"x_max":458,"ha":458,"o":"m 114 -15 l 360 479 l 114 479 q 86 479 72 466 q 58 454 40 410 l 26 410 l 74 606 l 87 606 q 88 593 93 589 q 97 585 108 585 l 439 585 l 239 -15 z"},"S":{"x_min":0,"x_max":458,"ha":458,"o":"m 382 600 l 382 446 l 365 446 q 348 497 306 532 q 265 567 220 567 q 180 567 152 544 q 124 521 124 488 q 124 472 131 456 q 139 440 153 426 q 167 413 242 365 q 319 318 342 299 q 364 281 385 252 q 416 208 416 155 q 416 77 361 31 q 306 -15 228 -15 q 186 -15 128 0 q 97 8 85 8 q 64 8 55 -11 l 38 -11 l 38 165 l 55 165 q 68 97 110 57 q 151 18 212 18 q 259 18 289 42 q 320 65 320 101 q 320 130 300 156 q 281 183 196 233 q 118 280 92 306 q 67 331 54 363 q 41 394 41 429 q 41 504 93 552 q 144 600 225 600 q 250 600 285 592 q 320 584 335 584 q 349 584 365 600 z"},"}":{"x_min":0,"x_max":394,"ha":394,"o":"m 193 273 q 193 233 224 204 q 254 174 304 168 l 304 152 q 254 146 224 116 q 193 87 193 47 q 193 26 205 -22 q 215 -64 215 -105 q 215 -176 163 -229 q 111 -283 30 -294 l 34 -276 q 142 -249 142 -160 q 142 -135 131 -89 q 120 -38 120 -8 q 120 47 158 91 q 197 136 264 159 l 264 161 q 197 184 158 229 q 120 273 120 328 q 120 357 132 409 q 142 456 142 480 q 142 569 34 596 l 30 614 q 111 603 163 550 q 215 497 215 425 q 215 384 205 342 q 193 294 193 273 z"},"Z":{"x_min":0,"x_max":615,"ha":615,"o":"m 579 153 l 597 153 l 572 0 l 17 0 l 17 17 l 412 552 l 191 552 q 136 552 109 528 q 82 504 59 438 l 42 438 l 59 585 l 579 585 l 579 569 l 185 33 l 413 33 q 481 33 514 58 q 547 82 579 153 z"},"x":{"x_min":0,"x_max":552,"ha":552,"o":"m 397 285 l 327 213 l 446 67 q 468 40 486 29 q 503 19 531 17 l 531 0 l 271 0 l 271 17 q 310 19 310 44 q 310 57 297 73 l 235 152 l 179 98 q 156 76 156 53 q 156 25 190 17 l 190 0 l 8 0 l 8 17 q 42 20 70 37 q 99 54 142 98 l 216 174 l 134 275 q 96 322 71 340 q 47 358 17 360 l 17 377 l 271 377 l 271 360 q 242 360 242 333 q 242 318 252 306 l 309 236 l 357 285 q 378 306 378 327 q 378 351 349 360 l 349 377 l 516 377 l 516 360 q 482 353 457 337 q 431 320 397 285 z"},")":{"x_min":0,"x_max":365,"ha":365,"o":"m 37 -309 l 26 -298 q 109 -210 145 -106 q 180 -1 180 159 q 180 321 145 423 q 110 525 26 615 l 37 626 q 176 542 241 429 q 305 317 305 159 q 305 3 243 -107 q 182 -218 37 -309 z"},"&":{"x_min":0,"x_max":771,"ha":771,"o":"m 141 460 q 141 521 193 561 q 245 600 331 600 q 409 600 453 570 q 497 539 497 485 q 497 436 459 399 q 422 361 358 348 q 457 246 507 184 q 545 252 545 291 q 545 334 507 348 l 507 365 l 679 365 l 679 348 q 650 340 630 319 q 609 297 569 222 q 547 179 533 154 q 582 98 614 76 q 646 54 676 54 q 703 54 725 75 l 738 64 q 689 -15 593 -15 q 552 -15 521 0 q 489 16 450 55 q 355 -15 252 -15 q 167 -15 113 28 q 59 70 59 138 q 59 252 213 322 q 174 365 158 396 q 141 428 141 460 z m 252 498 q 252 472 269 445 q 286 418 330 377 q 356 385 373 404 q 389 423 389 447 q 389 492 365 525 q 342 558 310 558 q 284 558 268 542 q 252 525 252 498 z m 184 205 q 184 140 227 93 q 270 45 328 45 q 378 45 427 83 q 293 247 239 295 q 208 273 196 253 q 184 233 184 205 z"},"_":{"x_min":0,"x_max":500,"ha":500,"o":"m 509 -75 l 509 -125 l -8 -125 l -8 -75 z"},"v":{"x_min":0,"x_max":500,"ha":500,"o":"m 485 377 l 485 360 q 457 357 437 337 q 417 317 395 271 l 259 -15 l 238 -15 l 96 278 q 73 324 53 341 q 34 358 3 360 l 3 377 l 238 377 l 238 360 q 202 353 202 325 q 202 313 209 299 l 296 123 l 364 263 q 379 295 379 317 q 379 356 333 360 l 333 377 z"},"O":{"x_min":0,"x_max":719,"ha":719,"o":"m 678 292 q 678 158 588 71 q 499 -15 359 -15 q 220 -15 130 71 q 41 158 41 292 q 41 426 131 513 q 220 600 359 600 q 499 600 588 513 q 678 426 678 292 z m 538 288 q 538 424 492 496 q 447 567 359 567 q 272 567 227 496 q 181 424 181 287 q 181 160 227 89 q 273 18 359 18 q 443 18 491 88 q 538 159 538 288 z"},"(":{"x_min":0,"x_max":365,"ha":365,"o":"m 339 -298 l 329 -309 q 181 -214 121 -106 q 60 1 60 159 q 60 318 123 427 q 185 536 329 626 l 339 615 q 258 534 222 425 q 185 316 185 158 q 185 0 220 -103 q 255 -206 339 -298 z"},"C":{"x_min":0,"x_max":615,"ha":615,"o":"m 577 381 l 561 381 q 541 469 489 518 q 437 567 362 567 q 280 567 232 498 q 184 429 184 313 q 184 184 240 113 q 296 42 395 42 q 448 42 493 64 q 537 86 583 135 l 583 104 q 496 -15 346 -15 q 212 -15 128 68 q 44 151 44 284 q 44 419 135 510 q 225 600 360 600 q 415 600 484 576 q 514 565 525 565 q 546 565 561 595 l 577 595 z"},"W":{"x_min":0,"x_max":927,"ha":927,"o":"m 914 585 l 914 568 q 878 564 852 532 q 826 501 804 435 l 651 -15 l 633 -15 l 461 446 l 306 -15 l 289 -15 l 107 474 q 85 531 69 548 q 52 565 14 568 l 14 585 l 266 585 l 266 568 q 228 561 228 526 q 228 511 236 487 l 342 205 l 442 501 q 426 537 411 550 q 395 562 359 568 l 359 585 l 608 585 l 608 568 q 571 558 571 526 q 571 515 576 501 l 687 205 l 768 446 q 783 492 783 515 q 783 558 732 568 l 732 585 z"},"A":{"x_min":0,"x_max":667,"ha":667,"o":"m 369 0 l 369 17 q 405 24 420 34 q 435 44 435 62 q 435 77 424 107 l 390 197 l 182 197 l 153 119 q 142 89 142 71 q 142 33 200 17 l 200 0 l 11 0 l 11 17 q 45 23 71 53 q 96 83 121 150 l 289 600 l 369 600 l 547 132 q 571 69 595 45 q 618 20 656 17 l 656 0 z m 200 239 l 374 239 l 285 476 z"},"f":{"x_min":0,"x_max":313,"ha":313,"o":"m 201 377 l 285 377 l 285 346 l 201 346 l 201 103 q 201 55 214 40 q 226 26 279 17 l 279 0 l 16 0 l 16 17 q 59 23 73 39 q 88 54 88 102 l 88 346 l 28 346 l 28 360 q 61 367 76 385 q 91 402 94 453 q 97 505 109 533 q 122 562 144 583 q 190 626 289 626 q 373 626 425 584 l 345 487 l 329 487 q 330 494 330 501 q 330 545 310 572 q 291 599 263 599 q 201 599 201 489 z"},"Q":{"x_min":0,"x_max":719,"ha":719,"o":"m 457 -2 l 592 -135 q 628 -171 656 -183 q 685 -194 733 -195 l 733 -213 q 688 -225 636 -225 q 564 -225 510 -201 q 455 -176 398 -119 l 320 -40 q 295 -15 242 5 q 173 31 131 71 q 89 112 65 171 q 41 229 41 293 q 41 427 131 513 q 220 600 359 600 q 498 600 588 513 q 678 427 678 293 q 678 187 619 107 q 560 28 457 -2 z m 538 293 q 538 423 491 495 q 444 567 359 567 q 272 567 227 494 q 181 422 181 286 q 181 159 227 89 q 273 18 359 18 q 444 18 491 90 q 538 162 538 293 z"},"w":{"x_min":0,"x_max":760,"ha":760,"o":"m 745 377 l 745 360 q 688 345 654 269 l 531 -15 l 511 -15 l 376 282 l 249 -15 l 229 -15 l 93 282 q 73 326 53 343 q 34 360 4 360 l 4 377 l 249 377 l 249 360 q 206 356 206 316 q 206 299 215 279 l 283 134 l 362 313 q 341 351 296 360 l 296 377 l 526 377 l 526 360 q 486 345 486 320 q 486 308 494 290 l 567 134 l 620 257 q 634 290 634 314 q 634 357 592 360 l 592 377 z"},"-":{"x_min":0,"x_max":365,"ha":365,"o":"m 33 231 l 332 231 l 332 147 l 33 147 z"},"E":{"x_min":0,"x_max":510,"ha":510,"o":"m 419 383 l 438 383 l 438 202 l 419 202 q 409 277 338 277 l 235 277 l 235 105 q 235 65 253 49 q 271 33 315 33 l 349 33 q 435 33 472 142 l 489 142 l 478 0 l 32 0 l 32 17 q 77 26 91 44 q 106 61 106 111 l 106 487 q 106 528 91 544 q 76 560 32 568 l 32 585 l 471 585 l 471 455 l 454 455 q 439 512 418 532 q 396 552 348 552 l 235 552 l 235 310 l 338 310 q 373 310 392 327 q 410 343 419 383 z"},"s":{"x_min":0,"x_max":365,"ha":365,"o":"m 39 -15 l 39 131 l 56 131 q 113 12 193 12 q 220 12 240 28 q 260 44 260 67 q 260 91 242 109 q 224 127 164 150 q 87 180 62 208 q 38 236 38 277 q 38 326 75 359 q 112 392 170 392 q 191 392 245 384 q 266 381 270 381 q 279 381 293 392 l 310 392 l 310 274 l 293 274 q 276 317 245 341 q 214 365 177 365 q 150 365 132 353 q 114 341 114 323 q 114 305 129 292 q 144 278 197 258 q 278 227 306 195 q 333 163 333 115 q 333 61 291 23 q 250 -15 197 -15 q 166 -15 135 -9 q 104 -2 91 -2 q 68 -2 56 -15 z"},">":{"x_min":0,"x_max":667,"ha":667,"o":"m 599 353 l 599 295 l 69 72 l 69 141 l 513 324 l 69 507 l 69 576 z"},"l":{"x_min":0,"x_max":292,"ha":292,"o":"m 20 0 l 20 17 q 61 23 76 39 q 91 55 91 92 l 91 523 q 91 563 75 580 q 60 596 20 598 l 20 615 l 187 626 l 204 626 l 204 92 q 204 54 217 40 q 229 26 271 17 l 271 0 z"},"8":{"x_min":0,"x_max":458,"ha":458,"o":"m 54 433 q 54 506 104 553 q 155 600 233 600 q 307 600 353 561 q 399 522 399 459 q 399 420 379 391 q 359 362 303 321 q 370 274 395 240 q 420 205 420 156 q 420 80 366 32 q 312 -15 218 -15 q 138 -15 88 25 q 38 65 38 129 q 38 227 161 280 q 103 318 78 353 q 54 388 54 433 z m 131 488 q 131 423 271 343 q 301 373 312 395 q 323 417 323 449 q 323 501 293 535 q 262 570 216 570 q 181 570 156 546 q 131 521 131 488 z m 119 136 q 119 84 152 50 q 185 15 233 15 q 272 15 302 41 q 332 67 332 102 q 332 182 188 260 q 119 209 119 136 z"},"\\":{"x_min":0,"x_max":531,"ha":531,"o":"m 81 591 l 154 591 l 450 -15 l 377 -15 z"},"e":{"x_min":0,"x_max":469,"ha":469,"o":"m 428 116 l 445 116 q 419 55 365 20 q 311 -15 243 -15 q 155 -15 96 42 q 37 100 37 186 q 37 274 97 333 q 158 392 247 392 q 328 392 381 346 q 435 300 445 222 l 159 222 q 159 214 159 207 q 159 130 197 82 q 236 34 293 34 q 375 34 428 116 z m 159 245 l 323 245 q 320 298 296 332 q 273 365 239 365 q 205 365 183 333 q 162 300 159 245 z"},"b":{"x_min":0,"x_max":552,"ha":552,"o":"m 173 626 l 190 626 l 190 323 q 256 392 335 392 q 412 392 463 336 q 515 280 515 197 q 515 96 449 41 q 384 -15 261 -15 q 153 -15 77 0 l 77 542 q 77 588 20 598 l 20 615 z m 190 296 l 190 75 q 190 41 204 27 q 218 12 250 12 q 390 12 390 185 q 390 254 359 298 q 328 341 278 341 q 255 341 236 331 q 218 322 190 296 z"},"%":{"x_min":0,"x_max":792,"ha":792,"o":"m 590 152 q 590 14 637 14 q 662 14 673 50 q 684 85 684 165 q 684 290 637 290 q 590 290 590 152 z m 506 152 q 506 227 541 270 q 576 312 637 312 q 697 312 732 271 q 767 229 767 159 q 767 79 733 36 q 700 -8 637 -8 q 576 -8 541 35 q 506 77 506 152 z m 571 598 l 636 598 l 220 -8 l 155 -8 z m 24 440 q 24 515 59 558 q 94 600 155 600 q 214 600 250 559 q 285 517 285 447 q 285 367 251 323 q 217 280 155 280 q 94 280 59 322 q 24 365 24 440 z m 108 440 q 108 302 155 302 q 180 302 191 338 q 202 374 202 453 q 202 578 155 578 q 108 578 108 440 z"},"m":{"x_min":0,"x_max":802,"ha":802,"o":"m 200 392 l 200 299 l 202 299 q 246 392 335 392 q 430 392 458 299 q 487 349 518 370 q 550 392 594 392 q 652 392 684 356 q 716 320 716 254 l 716 91 q 716 56 728 41 q 741 26 775 17 l 775 0 l 543 0 l 543 17 q 575 24 589 39 q 603 54 603 81 l 603 262 q 603 292 586 311 q 569 330 542 330 q 484 330 458 249 l 458 85 q 458 54 471 40 q 483 25 517 17 l 517 0 l 285 0 l 285 17 q 317 25 331 40 q 345 54 345 80 l 345 269 q 345 295 328 313 q 311 330 287 330 q 237 330 200 264 l 200 91 q 200 54 213 40 q 225 25 260 17 l 260 0 l 28 0 l 28 17 q 61 25 74 40 q 87 54 87 84 l 87 286 q 87 323 73 337 q 60 352 19 360 l 19 377 l 183 392 z"},"#":{"x_min":0,"x_max":668,"ha":668,"o":"m 46 477 l 203 477 l 244 672 l 306 672 l 265 477 l 468 477 l 509 672 l 571 672 l 530 477 l 622 477 l 622 415 l 517 415 l 478 235 l 622 235 l 622 173 l 465 173 l 424 -22 l 362 -22 l 403 173 l 200 173 l 159 -22 l 97 -22 l 138 173 l 46 173 l 46 235 l 151 235 l 190 415 l 46 415 z m 416 235 l 455 415 l 252 415 l 213 235 z"},",":{"x_min":0,"x_max":260,"ha":260,"o":"m 43 -181 l 43 -164 q 138 -130 138 -51 q 138 -38 133 -25 q 127 -13 120 -13 q 119 -13 114 -14 q 107 -15 103 -15 q 79 -15 62 5 q 45 25 45 53 q 45 84 66 104 q 86 124 119 124 q 160 124 189 87 q 218 50 218 -2 q 218 -66 164 -121 q 110 -176 43 -181 z"},"n":{"x_min":0,"x_max":563,"ha":563,"o":"m 200 392 l 200 300 l 202 300 q 256 392 345 392 q 401 392 439 355 q 477 317 477 255 l 477 90 q 477 54 490 40 q 502 25 536 17 l 536 0 l 304 0 l 304 17 q 337 24 351 39 q 364 54 364 85 l 364 241 q 364 284 345 307 q 327 331 294 331 q 236 331 200 265 l 200 89 q 200 55 212 41 q 224 27 256 17 l 256 0 l 28 0 l 28 17 q 61 25 74 40 q 87 54 87 82 l 87 293 q 87 325 72 340 q 57 354 19 360 l 19 377 l 183 392 z"},"h":{"x_min":0,"x_max":563,"ha":563,"o":"m 182 626 l 199 626 l 199 301 l 201 301 q 230 349 264 371 q 297 392 342 392 q 403 392 439 353 q 475 314 475 248 l 475 85 q 475 53 489 39 q 502 24 534 17 l 534 0 l 303 0 l 303 17 q 337 26 349 41 q 362 57 362 88 l 362 240 q 362 331 294 331 q 269 331 248 318 q 227 304 199 269 l 199 83 q 199 53 212 39 q 226 25 259 17 l 259 0 l 29 0 l 29 17 q 61 25 73 41 q 86 56 86 88 l 86 536 q 86 563 73 576 q 61 590 29 598 l 29 615 z"},"z":{"x_min":0,"x_max":458,"ha":458,"o":"m 25 0 l 25 17 l 280 350 l 228 350 q 172 350 125 326 q 78 303 50 262 l 33 262 l 43 377 l 427 377 l 427 360 l 171 27 l 227 27 q 375 27 421 130 l 438 130 l 427 0 z"},"B":{"x_min":0,"x_max":615,"ha":615,"o":"m 385 0 l 32 0 l 32 17 q 78 26 92 44 q 106 61 106 99 l 106 488 q 106 528 91 545 q 75 562 32 568 l 32 585 l 341 585 q 436 585 489 549 q 542 513 542 448 q 542 346 412 310 l 412 308 q 578 278 578 154 q 578 85 525 42 q 473 0 385 0 z m 235 552 l 235 317 l 282 317 q 338 317 370 348 q 402 379 402 435 q 402 552 273 552 z m 304 284 l 235 284 l 235 105 q 235 66 254 50 q 274 33 320 33 q 375 33 406 66 q 438 99 438 157 q 438 215 403 250 q 367 284 304 284 z"},"K":{"x_min":0,"x_max":656,"ha":656,"o":"m 438 470 l 329 367 l 563 79 q 592 43 609 31 q 625 20 650 17 l 650 0 l 383 0 l 383 17 q 423 26 423 45 q 423 55 411 70 l 228 297 l 228 106 q 228 63 240 48 q 252 32 301 17 l 301 0 l 25 0 l 25 17 q 71 28 85 44 q 99 61 99 102 l 99 486 q 99 526 85 542 q 70 557 25 568 l 25 585 l 301 585 l 301 568 q 258 558 243 541 q 228 524 228 493 l 228 320 l 408 493 q 426 510 426 527 q 426 555 372 568 l 372 585 l 615 585 l 615 568 q 574 568 534 546 q 495 524 438 470 z"},"R":{"x_min":0,"x_max":656,"ha":656,"o":"m 27 0 l 27 17 q 101 23 101 92 l 101 488 q 101 528 86 544 q 70 560 27 568 l 27 585 l 305 585 q 415 585 473 546 q 532 508 532 438 q 532 388 502 352 q 471 315 414 299 l 414 297 q 435 292 458 263 q 482 234 528 149 q 572 66 593 44 q 613 22 648 17 l 648 0 l 479 0 q 446 39 394 142 q 358 213 341 236 q 324 260 305 269 q 286 279 230 279 l 230 99 q 230 61 247 42 q 264 23 305 17 l 305 0 z m 270 552 l 230 552 l 230 312 q 245 311 258 311 q 328 311 360 341 q 392 371 392 436 q 392 552 270 552 z"},"T":{"x_min":0,"x_max":563,"ha":563,"o":"m 418 17 l 418 0 l 143 0 l 143 17 q 187 25 202 42 q 217 60 217 105 l 217 552 l 158 552 q 105 552 74 529 q 43 506 28 456 l 11 456 l 17 597 l 35 597 q 54 585 93 585 l 470 585 q 510 585 528 597 l 546 597 l 552 456 l 535 456 q 520 506 489 529 q 458 552 405 552 l 346 552 l 346 104 q 346 61 361 43 q 376 24 418 17 z"},"P":{"x_min":0,"x_max":542,"ha":542,"o":"m 30 585 l 330 585 q 423 585 476 542 q 530 499 530 430 q 530 356 470 309 q 411 261 307 261 q 271 261 233 266 l 233 99 q 233 60 249 42 q 265 24 306 17 l 306 0 l 30 0 l 30 17 q 74 26 89 44 q 104 62 104 106 l 104 488 q 104 528 90 543 q 76 558 30 568 z m 282 552 l 233 552 l 233 301 q 255 294 276 294 q 330 294 360 328 q 390 363 390 425 q 390 481 360 517 q 331 552 282 552 z"},"|":{"x_min":0,"x_max":527,"ha":527,"o":"m 231 -205 l 231 626 l 296 626 l 296 -205 z"},"t":{"x_min":0,"x_max":344,"ha":344,"o":"m 324 63 l 336 52 q 296 -15 215 -15 q 154 -15 121 16 q 87 47 87 105 l 87 347 l 19 347 l 19 366 q 95 413 181 523 l 200 523 l 200 377 l 324 377 l 324 347 l 200 347 l 200 130 q 200 79 217 56 q 233 33 269 33 q 299 33 324 63 z"},"M":{"x_min":0,"x_max":906,"ha":906,"o":"m 812 585 l 812 568 q 776 562 760 545 q 744 529 744 499 q 744 487 746 473 l 799 108 q 805 68 826 46 q 847 25 888 17 l 888 0 l 599 0 l 599 17 q 635 26 651 46 q 667 65 667 102 q 667 120 663 146 l 615 480 l 423 0 l 402 0 l 212 480 l 161 136 q 158 116 158 99 q 158 22 230 17 l 230 0 l 18 0 l 18 17 q 64 19 88 48 q 111 77 122 146 l 180 528 q 143 566 95 568 l 95 585 l 306 585 l 459 199 l 614 585 z"},"g":{"x_min":0,"x_max":510,"ha":510,"o":"m 36 237 q 36 304 90 348 q 144 392 227 392 q 242 392 271 391 l 283 390 l 480 390 l 480 322 l 384 329 l 382 327 q 433 284 433 231 q 433 172 382 132 q 331 93 251 93 q 185 93 157 83 q 130 74 130 53 q 130 38 150 29 q 170 20 240 13 q 342 3 387 -15 q 432 -33 456 -65 q 479 -97 479 -132 q 479 -206 410 -255 q 341 -303 227 -303 q 131 -303 71 -271 q 10 -238 10 -186 q 10 -144 54 -113 q 98 -82 171 -74 l 171 -72 q 103 -65 71 -44 q 39 -23 39 18 q 39 49 66 68 q 92 86 162 102 l 162 104 q 97 124 66 156 q 36 188 36 237 z m 149 241 q 149 186 172 153 q 196 120 235 120 q 275 120 298 152 q 320 185 320 244 q 320 300 298 332 q 276 364 239 364 q 149 364 149 241 z m 102 -145 q 102 -188 167 -214 q 233 -240 319 -240 q 361 -240 388 -223 q 415 -205 415 -178 q 415 -136 354 -111 q 292 -87 206 -87 q 159 -87 130 -103 q 102 -119 102 -145 z"},"j":{"x_min":0,"x_max":292,"ha":292,"o":"m -31 -244 l -31 -228 l -28 -228 q 36 -228 64 -193 q 92 -158 92 -77 l 92 300 q 92 328 76 341 q 60 354 20 360 l 20 377 l 188 392 l 205 392 l 205 -41 q 205 -155 152 -202 q 100 -249 13 -249 q -11 -249 -31 -244 z m 84 561 q 84 588 103 607 q 123 626 150 626 q 177 626 196 607 q 215 588 215 561 q 215 534 196 514 q 177 495 150 495 q 123 495 103 515 q 84 534 84 561 z"},"i":{"x_min":0,"x_max":292,"ha":292,"o":"m 189 392 l 206 392 l 206 81 q 206 24 267 17 l 267 0 l 30 0 l 30 17 q 68 24 80 39 q 93 53 93 89 l 93 290 q 93 325 80 338 q 66 352 25 360 l 25 377 z m 84 561 q 84 588 103 607 q 123 626 150 626 q 177 626 196 607 q 215 588 215 561 q 215 534 196 514 q 177 495 150 495 q 123 495 103 515 q 84 534 84 561 z"},"y":{"x_min":0,"x_max":500,"ha":500,"o":"m 487 377 l 487 360 q 452 351 436 334 q 419 317 396 263 l 206 -171 q 176 -240 140 -268 q 104 -296 45 -296 q 27 -296 13 -294 l 36 -180 q 63 -189 87 -189 q 137 -189 172 -151 q 207 -113 243 -15 l 105 276 q 84 321 66 336 q 48 351 13 360 l 13 377 l 243 377 l 243 360 q 208 355 208 332 q 208 316 223 284 l 303 119 l 355 240 q 375 286 375 312 q 375 351 330 360 l 330 377 z"},"@":{"x_min":0,"x_max":930,"ha":930,"o":"m 528 152 l 526 154 q 424 15 336 15 q 299 15 273 48 q 247 81 247 128 q 247 200 290 280 q 332 360 397 415 q 462 470 516 470 q 550 470 573 452 q 595 435 600 403 l 602 403 l 617 457 l 694 467 l 604 158 q 591 109 591 87 q 591 71 601 61 q 612 50 627 50 q 676 50 726 96 q 775 142 805 216 q 835 290 835 369 q 835 501 746 585 q 657 670 518 670 q 401 670 306 608 q 210 547 155 437 q 99 327 99 204 q 99 32 206 -78 q 312 -187 481 -187 q 614 -187 716 -117 q 818 -46 874 84 l 902 84 q 859 -52 743 -134 q 626 -216 479 -216 q 359 -216 261 -160 q 164 -104 108 -5 q 53 95 53 217 q 53 348 115 458 q 176 568 282 632 q 389 695 515 695 q 671 695 767 602 q 864 509 864 360 q 864 272 827 189 q 791 107 730 61 q 670 15 595 15 q 520 15 520 82 q 520 108 528 152 z m 523 448 q 484 448 439 398 q 394 349 360 271 q 325 193 325 144 q 325 115 342 95 q 358 74 382 74 q 443 74 513 171 q 582 268 582 380 q 582 410 566 429 q 549 448 523 448 z"},".":{"x_min":0,"x_max":260,"ha":260,"o":"m 130 133 q 161 133 182 111 q 204 90 204 59 q 204 28 182 7 q 161 -15 130 -15 q 99 -15 78 7 q 56 28 56 59 q 56 90 78 111 q 99 133 130 133 z"},"p":{"x_min":0,"x_max":573,"ha":573,"o":"m 204 392 l 204 319 q 268 392 356 392 q 433 392 483 335 q 534 278 534 193 q 534 102 478 43 q 422 -15 336 -15 q 299 -15 272 -4 q 245 8 204 40 l 204 -198 q 204 -238 218 -254 q 231 -269 274 -278 l 274 -294 l 23 -294 l 23 -277 q 64 -272 77 -254 q 91 -236 91 -182 l 91 279 q 91 322 77 337 q 64 352 23 360 l 23 377 l 187 392 z m 204 292 l 204 67 q 248 23 297 23 q 347 23 378 66 q 409 110 409 181 q 409 255 380 299 q 350 342 300 342 q 245 342 204 292 z"},"X":{"x_min":0,"x_max":667,"ha":667,"o":"m 478 465 l 385 341 l 560 89 q 591 46 608 35 q 625 23 654 17 l 654 0 l 363 0 l 363 17 q 415 18 415 55 q 415 76 397 102 l 306 235 l 226 132 q 193 90 193 60 q 193 26 234 17 l 234 0 l 21 0 l 21 17 q 95 22 169 121 l 281 269 l 124 496 q 99 533 76 548 q 54 563 21 568 l 21 585 l 306 585 l 306 568 q 266 563 266 532 q 266 513 281 491 l 363 374 l 444 484 q 461 508 461 528 q 461 559 416 568 l 416 585 l 619 585 l 619 568 q 555 568 478 465 z"},"*":{"x_min":0,"x_max":510,"ha":510,"o":"m 192 461 l 214 439 q 229 426 248 418 q 243 445 226 484 q 203 533 203 569 q 203 592 219 609 q 235 626 258 626 q 281 626 296 609 q 311 593 311 568 q 311 531 288 483 q 273 454 270 445 q 267 436 265 418 q 294 435 316 456 q 374 510 413 510 q 436 510 451 495 q 467 480 467 458 q 467 431 445 415 q 422 399 386 399 q 357 399 329 403 l 298 406 q 289 406 270 402 q 285 384 323 362 q 373 333 389 313 q 406 292 406 271 q 406 251 390 235 q 375 219 355 219 q 293 219 275 333 l 270 359 q 267 375 257 393 q 247 376 243 367 q 240 358 235 330 q 226 283 208 251 q 191 219 156 219 q 135 219 119 235 q 104 250 104 271 q 104 320 188 364 q 213 376 220 382 q 228 387 243 402 q 230 405 215 405 l 129 401 q 88 401 66 416 q 44 431 44 459 q 44 481 60 497 q 76 513 98 513 q 132 513 192 461 z"},"Y":{"x_min":0,"x_max":615,"ha":615,"o":"m 515 505 l 377 308 l 377 99 q 377 60 393 42 q 408 25 451 17 l 451 0 l 174 0 l 174 17 q 214 23 231 42 q 248 62 248 103 l 248 274 l 96 507 q 74 541 57 553 q 40 565 13 568 l 13 585 l 280 585 l 280 568 q 237 566 237 540 q 237 523 254 497 l 355 341 l 444 469 q 465 500 465 523 q 465 557 420 568 l 420 585 l 601 585 l 601 568 q 556 563 515 505 z"},"c":{"x_min":0,"x_max":469,"ha":469,"o":"m 432 392 l 441 255 l 424 255 q 370 369 285 369 q 228 369 194 324 q 161 280 161 202 q 161 123 198 77 q 235 32 300 32 q 342 32 371 48 q 399 63 432 103 l 452 103 q 396 -15 249 -15 q 154 -15 95 39 q 36 93 36 181 q 36 271 101 332 q 166 392 262 392 q 294 392 336 386 q 373 380 386 380 q 401 380 416 392 z"},"!":{"x_min":0,"x_max":260,"ha":260,"o":"m 18 598 l 18 615 q 65 626 141 626 q 173 626 186 617 q 198 607 198 584 q 198 554 171 414 q 142 260 135 195 l 120 195 q 95 338 82 495 q 75 573 66 586 q 58 600 37 600 q 30 600 18 598 z m 131 133 q 162 133 183 111 q 205 90 205 59 q 205 28 183 7 q 162 -15 131 -15 q 100 -15 79 7 q 57 28 57 59 q 57 90 79 111 q 100 133 131 133 z"},"/":{"x_min":0,"x_max":531,"ha":531,"o":"m 81 -15 l 377 591 l 450 591 l 154 -15 z"},"[":{"x_min":0,"x_max":365,"ha":365,"o":"m 93 -294 l 93 615 l 336 615 l 336 592 l 292 592 q 206 592 206 529 l 206 -207 q 208 -241 228 -256 q 248 -271 292 -271 l 336 -271 l 336 -294 z"},"6":{"x_min":0,"x_max":458,"ha":458,"o":"m 390 598 l 390 585 q 286 569 222 485 q 159 402 155 288 q 222 321 279 321 q 345 321 390 276 q 435 230 435 164 q 435 87 378 36 q 322 -15 236 -15 q 142 -15 83 49 q 24 113 24 216 q 24 318 73 406 q 123 495 208 546 q 294 598 390 598 z m 326 141 q 326 195 300 233 q 274 271 231 271 q 187 271 148 237 q 145 220 145 192 q 145 111 171 63 q 198 15 241 15 q 276 15 301 52 q 326 89 326 141 z"},"r":{"x_min":0,"x_max":406,"ha":406,"o":"m 199 392 l 199 272 l 201 272 q 255 392 326 392 q 365 392 393 360 l 368 246 q 317 295 283 295 q 258 295 240 283 q 221 271 199 241 l 199 87 q 199 51 212 38 q 225 24 263 17 l 263 0 l 23 0 l 23 17 q 60 26 73 40 q 86 54 86 87 l 86 286 q 86 322 70 339 q 53 357 17 360 l 17 377 l 182 392 z"},"2":{"x_min":0,"x_max":458,"ha":458,"o":"m 130 78 l 428 78 l 428 0 l 29 0 l 29 24 l 80 71 q 161 144 192 182 q 223 221 242 250 q 298 331 298 406 q 298 461 270 497 q 242 532 198 532 q 158 532 126 503 q 95 473 86 426 l 73 426 q 84 509 128 555 q 173 600 244 600 q 320 600 368 552 q 416 503 416 436 q 416 366 355 288 q 295 211 130 80 z"},"{":{"x_min":0,"x_max":394,"ha":394,"o":"m 201 47 q 201 87 170 116 q 140 146 90 152 l 90 168 q 140 174 170 204 q 201 233 201 273 q 201 298 191 338 q 179 388 179 425 q 179 497 231 550 q 283 603 364 614 l 360 596 q 252 569 252 480 q 252 460 263 409 q 274 362 274 328 q 274 273 236 229 q 197 184 130 161 l 130 159 q 197 136 236 91 q 274 47 274 -8 q 274 -42 263 -89 q 252 -140 252 -160 q 252 -249 360 -276 l 364 -294 q 283 -283 231 -229 q 179 -176 179 -105 q 179 -68 191 -18 q 201 22 201 47 z"},"9":{"x_min":0,"x_max":458,"ha":458,"o":"m 69 -15 l 69 -2 q 170 15 232 93 q 293 172 304 295 q 235 262 179 262 q 113 262 69 308 q 24 353 24 420 q 24 497 81 547 q 137 598 222 598 q 317 598 376 534 q 435 470 435 367 q 435 269 385 178 q 335 88 252 36 q 168 -15 69 -15 z m 133 443 q 133 384 158 348 q 184 313 227 313 q 271 313 310 346 q 314 370 314 391 q 314 472 288 520 q 261 568 217 568 q 182 568 157 531 q 133 495 133 443 z"}," ":{"x_min":0,"x_max":225,"ha":225,"o":""},"I":{"x_min":0,"x_max":365,"ha":365,"o":"m 321 585 l 321 568 q 277 558 262 542 q 247 525 247 474 l 247 99 q 247 60 261 44 q 275 28 321 17 l 321 0 l 44 0 l 44 17 q 75 25 91 34 q 106 43 112 58 q 118 72 118 112 l 118 486 q 118 525 104 541 q 89 557 44 568 l 44 585 z"},"H":{"x_min":0,"x_max":771,"ha":771,"o":"m 526 112 l 526 284 l 245 284 l 245 99 q 245 59 259 44 q 272 28 317 17 l 317 0 l 42 0 l 42 17 q 73 25 89 34 q 104 43 110 58 q 116 72 116 112 l 116 486 q 116 525 102 541 q 87 557 42 568 l 42 585 l 317 585 l 317 568 q 274 558 260 542 q 245 525 245 490 l 245 326 l 526 326 l 526 486 q 526 525 512 541 q 498 557 453 568 l 453 585 l 729 585 l 729 568 q 682 556 668 540 q 655 525 655 473 l 655 99 q 655 60 669 44 q 683 28 729 17 l 729 0 l 453 0 l 453 17 q 496 27 511 44 q 526 61 526 112 z"},"4":{"x_min":0,"x_max":458,"ha":458,"o":"m 438 144 l 324 144 l 324 -13 l 221 -13 l 221 144 l 10 144 l 10 166 l 307 600 l 324 600 l 324 198 l 438 198 z m 80 198 l 221 198 l 221 411 l 219 411 z"},"~":{"x_min":0,"x_max":667,"ha":667,"o":"m 96 240 l 65 240 q 65 318 102 363 q 139 408 198 408 q 251 408 355 363 q 458 319 486 319 q 522 319 544 342 q 566 365 571 407 l 602 407 q 598 328 562 283 q 525 239 465 239 q 440 239 408 248 q 376 257 310 285 q 211 327 180 327 q 109 327 96 240 z"},"D":{"x_min":0,"x_max":719,"ha":719,"o":"m 31 0 l 31 17 q 77 30 91 45 q 105 61 105 112 l 105 485 q 105 524 91 540 q 77 556 31 568 l 31 585 l 330 585 q 493 585 588 502 q 682 420 682 285 q 682 155 598 78 q 513 0 369 0 z m 310 552 l 234 552 l 234 102 q 234 64 256 49 q 278 33 329 33 q 431 33 486 101 q 542 168 542 291 q 542 412 481 482 q 420 552 310 552 z"},"^":{"x_min":0,"x_max":581,"ha":581,"o":"m 146 326 l 72 326 l 270 677 l 311 677 l 509 326 l 435 326 l 290 576 z"},"0":{"x_min":0,"x_max":458,"ha":458,"o":"m 439 298 q 439 153 383 69 q 327 -15 231 -15 q 134 -15 76 65 q 18 145 18 278 q 18 430 74 515 q 129 600 229 600 q 327 600 383 519 q 439 438 439 298 z m 318 304 q 318 445 296 508 q 274 570 229 570 q 182 570 161 501 q 139 432 139 267 q 139 146 162 81 q 185 15 228 15 q 275 15 296 80 q 318 145 318 304 z"},"F":{"x_min":0,"x_max":479,"ha":479,"o":"m 425 387 l 442 387 l 442 206 l 425 206 q 418 245 397 262 q 376 279 334 279 l 243 279 l 243 98 q 243 59 259 42 q 274 24 315 17 l 315 0 l 40 0 l 40 17 q 83 24 99 43 q 114 62 114 112 l 114 489 q 114 524 99 540 q 85 556 40 568 l 40 585 l 455 585 l 467 475 l 450 475 q 435 516 410 534 q 386 552 344 552 l 243 552 l 243 312 l 334 312 q 374 312 393 328 q 413 344 425 387 z"},"`":{"x_min":0,"x_max":333,"ha":333,"o":"m 214 452 l -11 620 l 169 620 l 231 452 z"},"k":{"x_min":0,"x_max":563,"ha":563,"o":"m 29 0 l 29 17 q 61 26 73 40 q 86 53 86 82 l 86 539 q 86 564 74 577 q 62 589 29 598 l 29 615 l 182 626 l 199 626 l 199 203 l 333 300 q 348 311 348 329 q 348 343 337 351 q 326 360 307 360 l 307 377 l 515 377 l 515 360 q 478 354 454 345 q 431 335 396 310 l 297 240 l 475 54 q 494 34 507 27 q 521 20 545 17 l 545 0 l 373 0 l 199 180 l 199 94 q 199 55 208 42 q 218 29 256 17 l 256 0 z"},"u":{"x_min":0,"x_max":563,"ha":563,"o":"m 360 77 l 358 77 q 297 -15 208 -15 q 149 -15 116 15 q 83 46 83 100 l 83 295 q 83 326 70 340 q 58 354 24 360 l 24 377 l 179 392 l 196 392 l 196 114 q 196 83 214 65 q 233 48 266 48 q 295 48 315 63 q 335 78 360 116 l 360 304 q 360 350 301 360 l 301 377 l 456 392 l 473 392 l 473 92 q 473 54 484 40 q 496 26 533 17 l 533 0 l 360 -15 z"},"]":{"x_min":0,"x_max":365,"ha":365,"o":"m 29 615 l 272 615 l 272 -294 l 29 -294 l 29 -271 l 73 -271 q 159 -271 159 -207 l 159 529 q 159 562 139 577 q 119 592 73 592 l 29 592 z"},"U":{"x_min":0,"x_max":719,"ha":719,"o":"m 490 0 l 490 78 q 437 24 397 5 q 357 -15 302 -15 q 210 -15 156 38 q 101 90 101 179 l 101 486 q 101 525 87 541 q 72 557 27 568 l 27 585 l 304 585 l 304 568 q 260 558 245 541 q 230 525 230 481 l 230 154 q 230 100 259 70 q 289 39 340 39 q 412 39 490 120 l 490 486 q 490 525 476 541 q 462 557 416 568 l 416 585 l 693 585 l 693 568 q 650 559 635 542 q 619 525 619 474 l 619 99 q 619 60 633 44 q 647 28 693 17 l 693 0 z"},"o":{"x_min":0,"x_max":542,"ha":542,"o":"m 506 189 q 506 102 441 43 q 376 -15 271 -15 q 166 -15 100 43 q 35 102 35 189 q 35 243 65 292 q 95 341 148 366 q 200 392 271 392 q 377 392 441 333 q 506 275 506 189 z m 381 189 q 381 273 352 319 q 324 365 271 365 q 217 365 188 318 q 160 271 160 182 q 160 104 190 58 q 220 12 271 12 q 323 12 352 59 q 381 105 381 189 z"},"N":{"x_min":0,"x_max":667,"ha":667,"o":"m 456 568 l 456 585 l 654 585 l 654 568 q 569 563 569 472 l 569 -7 l 550 -7 l 129 468 l 129 110 q 129 63 146 44 q 163 25 215 17 l 215 0 l 13 0 l 13 17 q 54 23 72 45 q 90 67 90 113 l 90 510 q 56 545 43 555 q 30 564 12 568 l 12 585 l 188 585 l 530 193 l 530 456 q 530 514 514 536 q 499 559 456 568 z"},"+":{"x_min":0,"x_max":667,"ha":667,"o":"m 67 296 l 67 358 l 302 358 l 302 593 l 364 593 l 364 358 l 599 358 l 599 296 l 364 296 l 364 61 l 302 61 l 302 296 z"},"G":{"x_min":0,"x_max":667,"ha":667,"o":"m 587 585 l 587 421 l 569 421 q 543 488 489 527 q 434 567 368 567 q 279 567 231 491 q 182 416 182 278 q 182 151 230 84 q 279 18 370 18 q 458 18 458 80 l 458 167 q 458 227 398 239 l 398 256 l 644 256 l 644 239 q 612 230 599 211 q 587 191 587 151 l 587 27 q 499 -15 360 -15 q 267 -15 195 23 q 124 62 83 133 q 42 204 42 288 q 42 422 132 511 q 223 600 360 600 q 414 600 478 577 q 512 565 527 565 q 549 565 569 585 z"},"q":{"x_min":0,"x_max":573,"ha":573,"o":"m 298 -294 l 298 -277 q 339 -273 356 -257 q 374 -240 374 -201 l 374 35 q 325 6 293 -4 q 261 -15 225 -15 q 141 -15 92 38 q 42 91 42 179 q 42 275 110 333 q 179 392 304 392 q 381 392 487 377 l 487 -207 q 487 -241 498 -255 q 510 -269 547 -277 l 547 -294 z m 374 62 l 374 352 q 339 365 311 365 q 242 365 204 320 q 167 274 167 190 q 167 116 198 74 q 229 33 286 33 q 327 33 374 62 z"},"d":{"x_min":0,"x_max":573,"ha":573,"o":"m 465 626 l 482 626 l 482 103 q 482 56 495 41 q 509 25 557 17 l 557 0 l 275 0 q 159 0 97 52 q 34 104 34 194 q 34 282 90 337 q 145 392 234 392 q 312 392 369 354 l 369 527 q 369 565 348 581 q 328 597 276 598 l 276 615 z m 369 109 l 369 304 q 326 365 263 365 q 215 365 187 321 q 159 277 159 201 q 159 118 199 70 q 239 23 301 23 q 339 23 354 42 q 369 61 369 109 z"},"1":{"x_min":0,"x_max":458,"ha":458,"o":"m 117 0 l 117 13 q 152 19 166 34 q 179 50 179 99 l 179 450 q 179 474 177 481 q 174 488 164 488 q 160 488 146 485 q 109 478 85 477 l 85 489 q 153 508 274 600 l 288 600 l 288 99 q 288 53 299 37 q 311 21 348 13 l 348 0 z"},"5":{"x_min":0,"x_max":458,"ha":458,"o":"m 390 483 l 157 483 l 157 327 q 180 333 207 333 q 295 333 349 285 q 404 237 404 160 q 404 82 349 33 q 295 -15 207 -15 q 96 -15 33 72 l 41 79 q 102 33 162 33 q 214 33 249 66 q 283 99 283 148 q 283 196 250 226 q 217 256 164 256 q 142 256 112 250 l 112 585 l 390 585 z"}}}
